<?xml version="1.0" standalone="no"?>
<!DOCTYPE svg PUBLIC "-//W3C//DTD SVG 20010904//EN"
 "http://www.w3.org/TR/2001/REC-SVG-20010904/DTD/svg10.dtd">
<svg version="1.0" xmlns="http://www.w3.org/2000/svg"
 width="256.000000pt" height="256.000000pt" viewBox="0 0 256.000000 256.000000"
 preserveAspectRatio="xMidYMid meet">
<metadata>
Created by potrace 1.11, written by Peter Selinger 2001-2013
</metadata>
<g transform="translate(0.000000,256.000000) scale(0.100000,-0.100000)"
fill="#000000" stroke="none">
<path d="M1203 2043 c-27 -14 -59 -32 -73 -40 -14 -7 -139 -80 -279 -161 -211
-123 -257 -154 -273 -182 -17 -32 -18 -62 -18 -406 1 -341 2 -373 19 -400 21
-34 181 -133 257 -159 55 -19 133 -13 178 13 17 10 41 36 53 58 22 39 22 43
20 414 l-2 375 -50 0 -50 0 -5 -361 c-5 -393 -5 -388 -64 -399 -36 -7 -62 3
-169 65 -53 31 -77 51 -78 65 -1 28 -1 590 0 645 l1 45 83 46 c45 26 181 104
302 174 l220 127 40 -21 c22 -12 159 -90 305 -175 l265 -153 3 -351 2 -352
-37 -24 c-72 -46 -565 -326 -575 -326 -6 0 -44 20 -85 45 -40 25 -78 45 -83
45 -8 0 -96 -39 -110 -48 -5 -4 -1 -6 75 -52 158 -94 177 -102 214 -97 20 2
106 45 201 100 91 52 181 103 200 114 136 77 262 154 274 166 8 7 18 29 23 48
7 26 10 665 4 751 -2 25 -54 80 -98 103 -21 11 -157 89 -303 173 -296 172
-310 177 -387 135z"/>
<path d="M1328 1566 c-102 -27 -159 -90 -160 -176 -1 -116 76 -170 266 -186
86 -7 177 -31 192 -52 30 -39 4 -94 -54 -113 -46 -16 -188 -15 -235 0 -37 12
-65 45 -77 90 -6 23 -12 26 -51 27 -57 2 -70 -8 -59 -47 5 -16 6 -29 4 -29 -3
0 5 -18 18 -41 26 -47 83 -84 157 -104 47 -12 209 -13 256 -2 115 29 179 110
169 213 -10 101 -85 145 -289 169 -155 18 -200 46 -169 106 18 35 65 51 153
51 92 1 137 -21 163 -79 19 -44 20 -44 66 -41 l47 3 -1 42 c-1 64 -42 119
-112 150 -67 30 -207 39 -284 19z"/>
</g>
</svg>
